<svg xmlns="http://www.w3.org/2000/svg" xmlns:xlink="http://www.w3.org/1999/xlink" preserveAspectRatio="xMidYMid" width="24" height="24" viewBox="0 0 24 24">
  <defs>
    <style>
      .cls-1 {
        fill: #000;
        opacity: 0.43;
        fill-rule: evenodd;
      }
    </style>
  </defs>
  <path d="M12.000,24.000 C5.383,24.000 -0.000,18.617 -0.000,12.000 C-0.000,5.383 5.383,-0.000 12.000,-0.000 C18.617,-0.000 24.000,5.383 24.000,12.000 C24.000,18.617 18.617,24.000 12.000,24.000 ZM12.000,1.477 C6.198,1.477 1.477,6.197 1.477,12.000 C1.477,17.802 6.198,22.523 12.000,22.523 C17.802,22.523 22.523,17.802 22.523,12.000 C22.523,6.197 17.802,1.477 12.000,1.477 ZM12.011,8.450 C11.329,8.450 10.776,7.897 10.776,7.215 C10.776,6.533 11.329,5.980 12.011,5.980 C12.693,5.980 13.246,6.533 13.246,7.215 C13.246,7.897 12.693,8.450 12.011,8.450 ZM11.986,10.465 C12.394,10.465 12.724,10.795 12.724,11.203 L12.724,17.480 C12.724,17.888 12.394,18.219 11.986,18.219 C11.578,18.219 11.247,17.888 11.247,17.480 L11.247,11.203 C11.247,10.795 11.578,10.465 11.986,10.465 Z" class="cls-1"/>
</svg>
