<svg xmlns="http://www.w3.org/2000/svg" xmlns:xlink="http://www.w3.org/1999/xlink" preserveAspectRatio="xMidYMid" width="32" height="27" viewBox="0 0 32 27">
  <defs>
    <style>
      .cls-1 {
        fill: #000;
        opacity: 0.33;
        fill-rule: evenodd;
      }
    </style>
  </defs>
  <path d="M28.522,27.000 L3.478,27.000 C1.565,27.000 -0.000,25.401 -0.000,23.447 L-0.000,3.553 C-0.000,1.599 1.565,-0.000 3.478,-0.000 L28.522,-0.000 C30.435,-0.000 32.000,1.599 32.000,3.553 L32.000,23.447 C32.000,25.401 30.435,27.000 28.522,27.000 ZM30.609,15.596 C30.574,15.560 30.504,15.525 30.470,15.489 L26.330,11.262 L14.574,23.234 C14.435,23.376 14.261,23.447 14.087,23.447 C13.913,23.447 13.739,23.376 13.600,23.234 C13.322,22.950 13.322,22.524 13.600,22.239 L16.417,19.362 L16.383,19.326 L12.348,15.205 L8.939,18.687 C8.661,18.971 8.243,18.971 7.965,18.687 C7.687,18.403 7.687,17.976 7.965,17.692 L11.374,14.211 C11.896,13.678 12.800,13.678 13.322,14.211 L17.356,18.332 L17.391,18.367 L25.356,10.267 C25.913,9.699 26.748,9.699 27.304,10.267 L30.609,13.642 L30.609,3.553 C30.609,2.380 29.669,1.421 28.522,1.421 L3.478,1.421 C2.330,1.421 1.391,2.380 1.391,3.553 L1.391,23.447 C1.391,24.620 2.330,25.579 3.478,25.579 L28.522,25.579 C29.669,25.579 30.609,24.620 30.609,23.447 L30.609,15.596 ZM4.174,7.816 C4.174,5.862 5.739,4.263 7.652,4.263 C9.565,4.263 11.130,5.862 11.130,7.816 C11.130,9.770 9.565,11.368 7.652,11.368 C5.739,11.368 4.174,9.770 4.174,7.816 ZM9.739,7.816 C9.739,6.643 8.800,5.684 7.652,5.684 C6.504,5.684 5.565,6.643 5.565,7.816 C5.565,8.988 6.504,9.947 7.652,9.947 C8.800,9.947 9.739,8.988 9.739,7.816 ZM6.296,19.397 C6.574,19.113 6.991,19.113 7.270,19.397 C7.548,19.682 7.548,20.108 7.270,20.392 L6.574,21.103 C6.435,21.245 6.261,21.316 6.087,21.316 C5.913,21.316 5.739,21.245 5.600,21.103 C5.322,20.818 5.322,20.392 5.600,20.108 L6.296,19.397 Z" class="cls-1"/>
</svg>
